<svg width="61" height="61" viewBox="0 0 61 61" fill="none" xmlns="http://www.w3.org/2000/svg">
<g clip-path="url(#clip0_2_6)">
<path d="M58.0144 47.3275C56.8215 46.1363 51.4789 42.8186 46.2634 39.933C49.1372 35.8155 50.8333 30.8169 50.8333 25.4167C50.8333 11.3799 39.4534 0 25.4167 0C11.3782 0 0 11.3799 0 25.4167C0 39.4534 11.3782 50.8333 25.4167 50.8333C30.7694 50.8333 35.7291 49.1711 39.8262 46.3447C42.7153 51.5653 46.0381 56.9181 47.2309 58.111C49.6269 60.5069 52.5278 61.0034 54.2222 61C56.2166 60.9966 61.0932 56.1183 61 54.2222C60.917 52.5295 60.4103 49.7235 58.0144 47.3275Z" fill="#292F33"/>
<path d="M25.4167 45.75C36.6465 45.75 45.75 36.6464 45.75 25.4166C45.75 14.1869 36.6465 5.08331 25.4167 5.08331C14.1869 5.08331 5.08337 14.1869 5.08337 25.4166C5.08337 36.6464 14.1869 45.75 25.4167 45.75Z" fill="#66757F"/>
<path d="M27.1111 42.3611C35.3512 39.7635 33.8889 33.8889 33.8889 27.1111C33.8889 20.3333 40.6683 15.7448 34.4548 10.5903C30.766 7.5301 23.0173 6.4948 19.4166 7.8368C16.1074 9.06866 11.8611 11.5781 11.8611 16.6615C11.8611 21.7448 11.7628 21.6211 8.96698 26.1927C4.51906 33.4653 15.4618 46.033 27.1111 42.3611Z" fill="#F5F8FA"/>
<path d="M22.0278 37.2778C25.771 37.2778 28.8056 34.2433 28.8056 30.5C28.8056 26.7567 25.771 23.7222 22.0278 23.7222C18.2845 23.7222 15.25 26.7567 15.25 30.5C15.25 34.2433 18.2845 37.2778 22.0278 37.2778Z" fill="#FFAC33"/>
</g>
<defs>
<clipPath id="clip0_2_6">
<rect width="61" height="61" fill="white"/>
</clipPath>
</defs>
</svg>
